<svg aria-hidden="true" style="position: absolute; width: 0; height: 0; overflow: hidden;" version="1.1" xmlns="http://www.w3.org/2000/svg" xmlns:xlink="http://www.w3.org/1999/xlink">
<defs>
<symbol id="icon-facebook" viewBox="0 0 44 44">
<path fill="#afb1b8" style="fill: var(--color1, #afb1b8)" d="M29.328 7.306h4.017v-6.996c-0.693-0.095-3.076-0.31-5.852-0.31-5.792 0-9.759 3.643-9.759 10.338v6.162h-6.391v7.821h6.391v19.679h7.836v-19.677h6.133l0.974-7.821h-7.108v-5.388c0.002-2.261 0.611-3.808 3.76-3.808z"></path>
</symbol>
<symbol id="icon-instagram" viewBox="0 0 44 44">
<path fill="#afb1b8" style="fill: var(--color1, #afb1b8)" d="M43.957 12.936c-0.103-2.338-0.481-3.945-1.023-5.338-0.559-1.478-1.418-2.802-2.545-3.902-1.1-1.117-2.433-1.986-3.894-2.536-1.401-0.542-3-0.92-5.337-1.023-2.355-0.112-3.103-0.138-9.077-0.138s-6.722 0.026-9.068 0.129c-2.338 0.103-3.945 0.481-5.338 1.023-1.479 0.559-2.802 1.418-3.903 2.544-1.117 1.1-1.985 2.433-2.536 3.894-0.542 1.401-0.92 3-1.023 5.338-0.112 2.355-0.138 3.103-0.138 9.077s0.026 6.721 0.129 9.068c0.103 2.338 0.481 3.945 1.023 5.338 0.559 1.478 1.427 2.802 2.544 3.902 1.1 1.117 2.433 1.986 3.894 2.536 1.401 0.541 3 0.92 5.338 1.023 2.346 0.103 3.094 0.129 9.068 0.129s6.721-0.026 9.068-0.129c2.338-0.103 3.945-0.481 5.337-1.023 2.957-1.143 5.295-3.481 6.438-6.438 0.541-1.401 0.92-3 1.023-5.338 0.103-2.347 0.129-3.095 0.129-9.068s-0.009-6.722-0.112-9.068zM39.995 30.901c-0.095 2.149-0.456 3.309-0.756 4.083-0.739 1.917-2.261 3.438-4.178 4.178-0.774 0.301-1.942 0.662-4.083 0.756-2.321 0.103-3.017 0.129-8.888 0.129s-6.576-0.026-8.888-0.129c-2.149-0.094-3.309-0.455-4.083-0.756-0.954-0.352-1.822-0.911-2.527-1.642-0.731-0.713-1.289-1.573-1.642-2.527-0.301-0.774-0.662-1.943-0.756-4.083-0.103-2.321-0.129-3.017-0.129-8.888s0.026-6.575 0.129-8.887c0.094-2.149 0.455-3.309 0.756-4.083 0.353-0.954 0.911-1.822 1.651-2.527 0.713-0.731 1.573-1.289 2.527-1.642 0.774-0.301 1.943-0.662 4.083-0.756 2.321-0.103 3.017-0.129 8.888-0.129 5.88 0 6.575 0.026 8.888 0.129 2.149 0.095 3.309 0.456 4.083 0.756 0.954 0.352 1.822 0.911 2.527 1.642 0.73 0.713 1.289 1.573 1.642 2.527 0.301 0.774 0.662 1.942 0.756 4.083 0.103 2.321 0.129 3.017 0.129 8.887s-0.026 6.558-0.129 8.879z"></path>
<path fill="#afb1b8" style="fill: var(--color1, #afb1b8)" d="M22.082 10.701c-6.24 0-11.303 5.063-11.303 11.303s5.063 11.303 11.303 11.303c6.24 0 11.303-5.062 11.303-11.303s-5.063-11.303-11.303-11.303zM22.082 29.336c-4.048 0-7.332-3.283-7.332-7.332s3.284-7.332 7.332-7.332c4.048 0 7.332 3.283 7.332 7.332s-3.284 7.332-7.332 7.332z"></path>
<path fill="#afb1b8" style="fill: var(--color1, #afb1b8)" d="M36.471 10.254c0 1.457-1.181 2.639-2.639 2.639s-2.639-1.182-2.639-2.639c0-1.458 1.182-2.639 2.639-2.639s2.639 1.181 2.639 2.639z"></path>
</symbol>
<symbol id="icon-linkedin" viewBox="0 0 44 44">
<path fill="#afb1b8" style="fill: var(--color1, #afb1b8)" d="M43.989 44v-0.002h0.011v-16.137c0-7.894-1.7-13.975-10.928-13.975-4.437 0-7.414 2.435-8.63 4.743h-0.128v-4.006h-8.751v29.375h9.112v-14.546c0-3.83 0.726-7.533 5.469-7.533 4.673 0 4.743 4.371 4.743 7.779v14.302h9.103z"></path>
<path fill="#afb1b8" style="fill: var(--color1, #afb1b8)" d="M0.726 14.624h9.123v29.376h-9.123v-29.376z"></path>
<path fill="#afb1b8" style="fill: var(--color1, #afb1b8)" d="M5.284 0c-2.917 0-5.284 2.367-5.284 5.284s2.367 5.333 5.284 5.333c2.917 0 5.284-2.416 5.284-5.333-0.002-2.917-2.369-5.284-5.284-5.284v0z"></path>
</symbol>
<symbol id="icon-twitter" viewBox="0 0 44 44">
<path fill="#afb1b8" style="fill: var(--color1, #afb1b8)" d="M44 8.357c-1.636 0.718-3.38 1.194-5.198 1.425 1.87-1.117 3.297-2.871 3.968-4.986-1.743 1.039-3.668 1.774-5.72 2.183-1.656-1.763-4.015-2.854-6.589-2.854-4.994 0-9.014 4.053-9.014 9.023 0 0.715 0.061 1.402 0.209 2.057-7.499-0.366-14.135-3.96-18.593-9.435-0.778 1.35-1.235 2.896-1.235 4.559 0 3.124 1.609 5.893 4.007 7.496-1.449-0.027-2.871-0.448-4.075-1.111 0 0.027 0 0.063 0 0.099 0 4.384 3.127 8.024 7.227 8.863-0.734 0.201-1.534 0.297-2.365 0.297-0.577 0-1.16-0.033-1.708-0.154 1.169 3.572 4.485 6.199 8.429 6.284-3.069 2.401-6.966 3.847-11.184 3.847-0.74 0-1.449-0.033-2.159-0.124 3.996 2.577 8.731 4.048 13.838 4.048 16.599 0 25.674-13.75 25.674-25.668 0-0.399-0.014-0.784-0.033-1.166 1.79-1.271 3.295-2.857 4.521-4.683z"></path>
</symbol>
</defs>
</svg>
